<svg width="86" height="4" viewBox="0 0 86 4" fill="none" xmlns="http://www.w3.org/2000/svg">
<path d="M81.7831 0.00295568C81.8856 -0.0210323 82.0303 0.108672 82.1512 0.115505C82.6577 0.145499 82.8454 0.23541 83.3037 0.286404C83.9832 0.362148 86 0.191672 86 1.09278C86 1.0928 86 1.09281 86 1.09283C86 1.10167 85.9998 1.11061 85.9994 1.11966C85.9923 1.29133 85.8208 1.47873 85.7954 1.67288C85.77 1.8671 85.789 3.12095 85.5454 3.19144C85.1921 3.28433 84.3447 2.96284 84.1563 2.97708C84.0275 2.9869 83.869 3.10089 83.7043 3.12113C83.1732 3.18636 82.8954 3.103 82.4169 3.41263C82.2256 3.24946 82.0342 3.0863 81.8428 2.92313C81.5931 2.99878 81.2147 2.78359 81.063 2.79544C80.9386 2.80519 80.8657 2.93422 80.7359 2.94022C80.5905 2.94767 80.3671 2.8084 80.1025 2.82938C79.6687 2.86312 79.5915 3.19972 79.3312 3.24247C79.0612 3.2867 78.6415 3.10376 78.2971 3.2222C78.2539 3.25923 78.2107 3.29626 78.1675 3.33329C78.1985 3.41703 78.2294 3.50077 78.2604 3.58451C78.0869 3.62349 78.0123 3.45187 77.8529 3.44876C77.6654 3.44501 77.5697 3.60772 77.4435 3.60697C77.3401 3.60621 77.1999 3.47575 77.0659 3.48392C76.8705 3.49517 76.9132 3.68354 76.808 3.71878C76.7661 3.73248 75.9903 3.83643 75.9465 3.83793C75.6137 3.84535 75.5847 3.58752 75.3193 3.56498C74.5831 3.50348 73.8274 3.71182 73.1465 3.79056C72.8425 3.82579 72.5252 3.8108 72.222 3.76957C72.6995 3.10969 71.6427 2.59614 72.038 3.6287C71.7007 3.4818 71.4615 3.76054 71.1417 3.71341C70.9349 3.68267 70.7917 3.5395 70.4964 3.54325C69.9724 3.55081 69.3992 3.95778 69.2484 3.2222C68.6333 3.35187 68.1005 3.08505 67.8788 3.73441C67.7201 3.77408 67.3136 3.38729 67.1357 3.33475C66.9674 3.28526 65.6764 3.11061 65.4652 3.10086C65.254 3.09112 64.8843 3.08051 64.7064 3.13748C64.4829 3.20797 64.3267 3.88141 63.9289 3.09403C63.4663 3.15774 63.3014 3.13521 62.8712 3.04373C62.7933 3.02719 62.7845 2.91029 62.739 2.91019C62.6452 2.91019 62.4857 2.99658 62.3184 3.00711C62.0432 3.02436 61.8862 2.77839 61.9168 3.15409C61.7354 3.21707 61.554 3.28006 61.3726 3.34305C61.3089 3.27054 61.2453 3.19803 61.1817 3.12552C61.0847 3.20454 60.9877 3.28356 60.8907 3.36258C61.0046 2.81893 60.3219 3.13975 60.5436 3.45169C60.1919 3.33923 59.8402 3.22676 59.4885 3.11429C59.5376 2.49641 58.7163 3.04299 58.7855 3.37894C58.7452 3.37845 58.705 3.37796 58.6647 3.37748C58.3124 3.21325 57.9889 3.34757 57.5595 3.23734C57.1301 3.12711 57.1704 3.06695 57.0398 2.78275C56.9388 2.79902 56.8378 2.8153 56.7367 2.83158C56.2065 3.6107 56.3002 2.26175 55.3923 2.85941C55.1022 2.36973 54.3872 2.62695 53.9131 2.77542C53.8579 2.79267 53.8569 2.88772 53.7835 2.91702C53.6038 2.98751 53.1455 2.86533 53.1611 3.17191C53.0025 3.0832 52.8438 2.9945 52.6851 2.90579C52.5554 2.96154 52.4257 3.01729 52.296 3.07303C52.2967 3.16873 52.2973 3.26444 52.298 3.36014C52.0368 3.03397 51.6265 3.15932 51.424 3.08133C51.3838 3.06552 51.375 2.93351 51.2498 2.89749C51.1035 2.85475 50.8308 2.89382 50.6564 2.85257C50.5886 2.99881 50.5208 3.14505 50.453 3.29129C50.1411 3.37061 50.0315 2.98461 49.8483 2.95462C49.8154 2.94941 49.2138 2.97714 49.1814 2.98538C48.916 3.05071 48.9912 3.37955 48.2238 3.30912C48.0871 3.29637 47.9766 3.18259 47.853 3.17801C47.6348 3.16976 46.9773 3.42783 46.9256 3.66629C46.6609 3.36784 45.9528 3.48984 45.7443 3.4036C45.6813 3.37709 45.6671 3.18698 45.4736 3.14652C45.3167 3.11352 44.9128 3.26574 44.7138 3.24027C44.5026 3.21253 44.4272 3.05283 44.3326 3.04154C44.2432 3.03104 44.1608 3.15996 44.039 3.15921C43.6587 3.15471 43.3143 2.94721 43.0138 2.94339C42.5791 2.93739 42.1951 3.31908 41.8314 3.48856C41.7412 3.46381 41.6525 3.38189 41.5578 3.38114C40.387 3.36913 39.0663 3.29881 37.892 3.21707C37.3469 3.17953 35.9913 2.66143 36.3531 3.52591C36.1636 3.67731 34.7861 3.32877 34.5241 3.32352C34.2622 3.31832 34.0545 3.47333 33.8486 3.47562C33.2273 3.48237 32.7898 3.37067 32.0334 3.50565C31.8381 3.54094 31.6288 3.72458 31.5131 3.72245C31.3738 3.71945 31.2239 3.54184 31.0434 3.53055C30.6131 3.50506 29.8112 3.56348 29.3984 3.53275C29.3231 3.52675 29.2966 3.3708 29.1888 3.32206C28.769 3.1316 28.2985 3.14812 28.3818 3.64603C27.8437 3.36335 27.346 3.6212 26.8474 3.637C25.7931 3.66924 23.8727 3.55302 22.9543 3.76224C22.3752 3.89423 22.39 4.11754 21.5373 3.92484C21.3481 3.8821 21.1597 3.82446 20.9301 3.77347C20.392 3.65349 19.8984 3.24094 19.4883 3.73807C18.8906 3.60914 18.4147 3.70057 17.9713 3.27542C17.919 3.37739 17.8667 3.47936 17.8145 3.58133C17.7412 3.58386 17.6679 3.58638 17.5947 3.5889C17.5718 3.49165 17.549 3.3944 17.5261 3.29715C17.0012 3.27096 16.3353 3.67067 15.891 3.66776C15.1461 3.66326 13.2275 3.50797 12.5211 3.37674C12.1462 3.30706 12.126 3.51534 11.9113 3.08719C11.8274 3.11698 11.7435 3.14676 11.6597 3.17655C11.6072 3.2703 11.5547 3.36405 11.5022 3.4578C11.0211 3.46155 10.4504 3.31593 9.9921 3.31742C9.15692 3.32042 7.90281 3.57844 7.06412 3.40897C6.85383 3.36623 6.59096 3.1729 6.38503 3.17508C6.08531 3.17808 6.01247 3.49892 5.63212 3.50492C4.9766 3.51467 3.7558 3.14195 3.13621 3.17044C2.95218 3.1787 2.86632 3.29808 2.73925 3.31082C2.20642 3.36557 1.76896 3.35585 1.25804 3.54032C0.709439 3.23286 0.756831 2.83602 0.586817 2.43558C0.45797 2.13335 0.0628832 1.43294 0.00679843 1.16824C-0.0325977 0.982277 0.114495 0.743056 0.0592888 0.538357C0.716557 0.374887 0.992688 0.554846 1.52639 0.842801C2.51201 0.831327 3.49762 0.819852 4.48324 0.808378C4.57291 0.920113 4.66258 1.03185 4.75225 1.14358C4.75225 1.14383 4.75225 1.14407 4.75225 1.14432C5.13076 1.27327 5.29119 0.985512 5.49532 0.920194C7.44962 0.294788 11.2961 0.784275 13.4476 0.854764C13.9112 0.869756 15.4194 0.719193 15.7375 0.900663C15.8199 0.947924 15.8428 1.12022 15.9304 1.12771C16.7133 1.02526 17.4961 0.922798 18.279 0.82034C19.8889 1.08805 21.5532 0.866955 23.1754 0.825711C27.5642 0.713979 31.9092 0.57817 36.2261 0.619412C37.0604 0.627661 38.1192 0.498577 38.9359 0.581814C39.2768 0.616326 39.4188 0.893007 39.8666 0.686795C39.8714 0.761339 39.8761 0.835884 39.8808 0.910429C40.2716 0.820436 40.5213 0.650818 40.9594 0.633572C41.3284 0.619325 42.3046 0.608255 42.6306 0.636746C42.7997 0.650992 42.7367 0.790284 42.8944 0.789578C43.1643 0.787329 43.741 0.594759 44.1134 0.594754C44.4508 0.594754 45.0197 0.755208 45.2791 0.731961C46.2133 0.649473 47.2308 0.411629 48.2264 0.475369C48.5014 0.493403 48.8551 0.674012 48.9412 0.668973C49.1095 0.658477 49.1596 0.483032 49.2726 0.460476C49.8466 0.3465 50.7413 0.554989 51.304 0.56326C53.1373 0.590255 55.0795 0.51368 56.905 0.545926C58.0583 0.56617 59.9748 0.535295 61.0396 0.667264C61.2692 0.69576 61.208 0.887967 61.4008 0.887967C61.6146 0.887926 61.7304 0.758083 61.8302 0.747586C62.5218 0.674095 64.0483 0.542842 64.7011 0.675565C64.8255 0.701047 64.9157 0.851649 64.9902 0.851102C65.0278 0.851102 65.113 0.748326 65.2313 0.737821C66.2759 0.644835 67.0376 0.704773 68.0612 0.740018C70.0216 0.806751 72.2931 0.615549 74.3525 0.719022C74.8012 0.741518 75.1089 1.0394 75.172 1.03641C75.3104 1.0304 75.399 0.830037 75.6795 0.780545C76.6119 0.617871 77.8676 0.831673 78.7544 0.731229C79.1926 0.681742 79.7946 0.4274 80.2258 0.37112C80.5702 0.326133 81.3835 0.425903 81.5361 0.314236C81.6289 0.246771 81.6719 0.0300825 81.7831 0.00295568ZM70.1818 3.37601C70.2431 3.02956 69.5984 3.31748 69.8403 3.50345C69.8947 3.54533 70.1659 3.46594 70.1818 3.37601ZM39.991 2.77445C39.9969 2.8734 40.0028 2.97236 40.0087 3.07132C40.0933 3.03014 40.178 2.98897 40.2626 2.94779C40.2151 2.8883 40.1675 2.82881 40.1199 2.76932C40.0769 2.77103 40.034 2.77274 39.991 2.77445Z" fill="black"/>
</svg>
