<svg width="72" height="60" viewBox="0 0 72 60" fill="none" xmlns="http://www.w3.org/2000/svg">
<g clip-path="url(#clip0_59_6)">
<path fill-rule="evenodd" clip-rule="evenodd" d="M48.9599 23.5209C48.8064 23.4222 48.4828 23.6516 48.2834 23.7291C48.032 23.8525 47.7369 23.976 47.5089 24.1177C46.8587 24.5481 46.9318 24.8827 46.8777 25.5482C46.7579 27.1029 46.5387 29.9602 46.4094 31.6427C46.3824 31.9576 46.3174 32.2783 46.2472 32.5932C46.1376 33.0089 45.825 33.8534 45.3304 33.8607C45.0498 33.8191 44.7934 33.605 44.6495 33.3661C44.526 33.1893 44.4865 32.8934 44.4186 32.5961C44.3075 32.0789 44.1907 31.5317 44.0796 31.0159C44.0029 30.6148 43.8831 30.2093 43.8582 29.8813C43.8962 28.8687 44.0628 23.6597 44.122 22.6493C44.1432 22.5638 44.2279 22.5594 44.4917 22.539C44.6312 22.5295 44.77 22.5192 44.9154 22.509C45.5693 22.463 46.5417 22.3943 47.1605 22.3505C47.4929 22.3308 47.7449 22.2957 47.997 22.3381C48.3002 22.3673 48.9431 22.5711 48.9643 22.1006C48.9971 21.5812 48.9679 21.0194 48.9774 20.3151C48.9621 19.7613 49.0154 19.3339 48.9409 18.8291C48.8159 18.3308 48.7085 17.7325 48.4777 17.2481C48.3221 16.9493 48.1117 16.6059 47.9414 16.3101C47.845 16.1464 47.7551 16.0047 47.6171 15.8936C47.2196 15.627 46.6987 15.5071 46.2246 15.5875C45.9148 15.6452 45.5101 15.7117 45.269 15.8702C44.9183 16.1252 44.5041 16.5146 44.1505 16.8098C43.8466 17.0808 43.547 17.2912 43.3819 17.6214C43.1605 18.0262 42.9078 18.474 42.712 18.8824C42.449 19.6269 42.1881 20.8718 41.9609 21.6696C41.8769 21.9932 41.8791 22.0071 41.8521 22.2884C41.6994 23.8745 41.3998 27.0466 41.3129 27.946C41.28 28.2638 41.3158 28.407 41.3458 28.7876C41.4123 29.5036 41.5087 30.6024 41.5781 31.3578C41.6008 31.8107 41.6994 32.0394 41.8397 32.4522C42.0705 33.1082 42.2225 33.7059 42.6177 34.2742C42.8405 34.6264 43.1883 34.9588 43.5098 35.235C43.7684 35.479 44.1315 35.5878 44.5004 35.7215C44.8986 35.8421 45.326 36.1007 45.7344 35.9969C46.2399 35.8567 46.6746 35.5776 47.1312 35.2576C47.2182 35.1984 47.3095 35.1341 47.392 35.075C47.6952 34.8726 47.8684 34.6191 48.0496 34.3086C48.2344 33.9703 48.504 33.6503 48.5442 33.2704C48.634 32.5084 48.8481 30.5593 48.9358 29.7936C49.0439 28.6751 49.0453 26.11 49.0994 24.9711C49.1096 24.7314 49.0965 24.5093 49.0826 24.2551C49.0541 23.9753 49.0855 23.6728 48.9643 23.5245L48.9591 23.5201L48.9599 23.5209ZM44.6327 20.1975C44.8007 19.857 44.9132 19.4377 45.0842 19.1447C45.2303 18.916 45.3844 18.7969 45.6051 18.5705C45.9272 18.276 46.2604 17.8187 46.6834 17.8165C46.8207 17.815 46.9647 17.8487 47.0348 17.9787C47.1349 18.1694 47.1064 18.4514 47.113 18.6764C47.113 19.03 47.1188 19.3617 47.0691 19.6422C46.9595 20.291 46.9829 20.7476 46.1756 20.7534C45.7862 20.7651 44.9979 20.8586 44.6443 20.8199C44.3616 20.79 44.5413 20.4057 44.6268 20.2099L44.6327 20.1967V20.1975Z" fill="black"/>
<path fill-rule="evenodd" clip-rule="evenodd" d="M31.1902 18.5659C31.0156 17.7871 30.4947 17.2224 30.0359 16.5905C29.74 16.1521 29.336 15.8869 28.902 15.5698C28.7435 15.4566 28.5864 15.3645 28.4111 15.2842C27.9187 15.0782 27.4219 14.8385 26.8849 14.7874C26.253 14.7202 25.7306 14.596 25.087 14.642C24.455 14.6888 23.8954 14.6201 23.2781 14.832C22.9741 14.9247 22.4985 15.0716 22.2005 15.1636C21.8658 15.2696 21.7095 15.3236 21.3961 15.5129C20.6684 15.9585 19.8093 16.3698 19.1393 16.8666C18.5424 17.3444 17.4298 18.0933 16.8044 18.6478C16.407 19.089 15.8751 19.7641 15.4718 20.2331C15.3396 20.3902 15.2439 20.5056 15.1445 20.67C14.8896 21.1449 14.6185 21.6862 14.3964 22.1867C14.2635 22.5301 14.1575 22.9078 14.0355 23.2731C13.9025 23.7341 13.717 24.1001 13.7316 24.5874C13.7009 25.54 13.6585 26.923 13.6278 27.8691C13.5891 28.3367 13.7046 28.7363 13.7813 29.1966C13.8514 29.6218 13.9741 29.9337 14.1487 30.3012C14.2817 30.5883 14.4059 30.8638 14.6141 31.0983C15.0269 31.5951 15.9555 32.7333 16.5027 33.3945C16.7986 33.8036 17.1368 33.9804 17.5262 34.2734C17.8148 34.475 18.0836 34.6927 18.3773 34.8586C18.8223 35.0807 19.3344 35.2991 19.8034 35.4781C20.3192 35.6228 20.8898 35.6228 21.426 35.698C22.0368 35.7981 22.4832 35.6337 23.0472 35.5183C23.4117 35.4408 23.8099 35.3166 24.1949 35.2085C24.4996 35.1172 24.7998 35.0522 25.0621 34.8798C25.6013 34.5101 26.2902 34.0535 26.8111 33.659C27.2422 33.2718 27.7879 32.6588 28.2423 32.211C28.726 31.7361 29.0314 31.2349 29.4383 30.7045C29.7101 30.3509 29.7386 30.0068 29.9015 29.5838C30.0724 29.1549 30.3135 28.7224 30.4553 28.2921C30.6131 27.7135 30.7621 26.9157 30.9133 26.2809C31.0799 25.6109 31.134 24.9117 31.2341 24.2308C31.294 23.829 31.2983 23.5163 31.302 23.0904C31.3144 22.316 31.3349 21.009 31.3458 20.2967C31.3641 19.6954 31.3261 19.1964 31.1917 18.5813L31.188 18.5674L31.1902 18.5659ZM30.2419 22.6981C30.1491 23.3352 29.9943 24.0796 29.8781 24.6999C29.6896 25.4487 29.3097 26.6198 29.1241 27.2817C28.9948 27.7398 28.7778 28.1752 28.5901 28.6172C28.4067 29.0629 28.1437 29.3705 27.8705 29.7664C27.587 30.1551 27.3393 30.5796 26.9638 30.8345C26.779 30.9763 26.5708 31.1304 26.3852 31.2641C26.0068 31.5447 25.4625 31.7339 25.0073 31.9538C24.5441 32.1525 24.1752 32.3658 23.6967 32.4849C23.2919 32.593 22.8361 32.7194 22.4255 32.8261C22.1135 32.9174 21.9411 32.8933 21.6204 32.8436C21.1755 32.7764 20.4054 32.6595 20.0138 32.5996C19.7289 32.5638 19.49 32.4893 19.2219 32.3724C18.8902 32.2365 18.3372 32.0108 18.0172 31.8793C17.5131 31.6901 17.0681 31.3416 16.6159 31.0508C16.1454 30.779 16.003 30.1946 15.7757 29.7379C15.5456 29.2667 15.5968 28.7327 15.5463 28.2176C15.501 27.6397 15.4908 27.1714 15.5252 26.6235C15.5463 26.1998 15.5434 25.8374 15.6464 25.4297C15.7509 24.9161 15.9138 24.3565 15.9796 23.8356C16.0132 23.49 15.9248 23.0941 16.0198 22.8311C16.3324 22.183 16.9951 21.1843 17.3114 20.613C17.4663 20.3566 17.5182 20.2675 17.7571 20.0797C18.3722 19.5573 19.3483 18.7449 20.0314 18.167C20.3382 17.923 20.5084 17.7243 20.8759 17.5417C21.182 17.3802 21.5254 17.1954 21.8374 17.0339C22.237 16.8052 22.6556 16.7724 23.11 16.6737C23.6024 16.5839 23.9728 16.4721 24.4937 16.4896C24.9803 16.5006 25.5772 16.467 26.0681 16.5094C26.41 16.5532 26.8272 16.6263 27.1845 16.7366C27.4635 16.8308 27.7265 16.9784 27.9888 17.1128C28.4162 17.3203 28.726 17.6111 29.0759 17.9165C29.4916 18.2649 29.7466 18.7077 30.0052 19.1701C30.25 19.7217 30.2463 20.255 30.2558 20.8249C30.2448 21.4305 30.2748 22.118 30.2434 22.6886V22.6974L30.2419 22.6981Z" fill="black"/>
<path fill-rule="evenodd" clip-rule="evenodd" d="M26.8864 23.2877L26.6921 22.3935L26.4977 22.0209L26.0448 21.4993L25.3975 21.0521L23.9093 20.5283H23.262L23.197 20.4538L22.226 20.5283L21.4494 20.7519L20.8672 21.0499L20.2849 21.4971L19.8319 22.0187L19.0553 23.4353L18.6674 24.3295L18.3438 25.8206V26.6403L18.6024 27.3855L19.8319 28.9512L21.3851 29.8454H21.6438L22.0967 30.0689H22.8733L23.5206 29.8454L23.6499 29.6963H23.7793L24.4908 29.3997L25.6554 28.4302L26.3027 27.6851L26.6906 26.9399V26.6418L26.8849 26.1202V25.2259L26.95 25.1514L26.8849 23.2877H26.8864ZM24.7509 25.673L24.2329 26.7149L23.5214 27.5346L22.8098 27.7581H21.9689L20.8686 27.2365L20.157 26.5658V25.8206L20.3514 25.0009L20.9336 24.3302L21.4516 23.9576L22.0989 23.7341H22.6812L22.7462 23.6596L23.0699 23.7341L23.1349 23.6596L23.8465 23.8831H24.2344L24.7524 24.4815V25.6745L24.7509 25.673Z" fill="black"/>
<path fill-rule="evenodd" clip-rule="evenodd" d="M58.5663 15.0499L57.7137 15.3129L56.9926 16.1655L56.4681 18.526L55.8778 24.1011L54.3691 18.133L53.32 15.2472L52.7955 15.1157L52.3359 15.3129L51.6149 16.0998L50.3027 35.6442L50.8273 36.103L52.8006 35.2563L53.3383 21.883L55.7463 34.7916L56.7304 35.3162L58.304 34.9881L58.5663 34.7259L58.6321 23.1827L58.8293 19.9689L59.2881 17.9357L59.0916 16.1655L58.5663 15.0499Z" fill="black"/>
<path d="M55.5959 25.4125L55.5303 25.4781L55.5959 25.5438L55.6615 25.4781L55.5959 25.4125Z" fill="black"/>
<path fill-rule="evenodd" clip-rule="evenodd" d="M40.4868 16.042C40.2808 15.7556 39.9579 15.4246 39.7197 15.1419C39.5802 14.9819 39.5583 14.9724 39.3544 14.8541C39.1747 14.7496 38.9913 14.6415 38.808 14.5348C38.6246 14.4238 38.3959 14.2966 38.2315 14.198C38.0518 14.0928 38.0189 14.0716 37.8283 14.0497C37.6895 14.0336 37.5441 14.0176 37.4023 14.0015C37.1693 13.9876 36.9413 13.9175 36.7222 13.9679C36.3861 14.0497 35.6153 14.2674 35.1682 14.3814C35.0258 14.4208 34.922 14.434 34.8088 14.5143C34.6466 14.6305 34.442 14.8205 34.2638 14.9636C34.0585 15.1229 33.9394 15.3962 33.878 15.6197C33.8437 16.1698 33.634 20.0726 33.5332 21.8669C33.5697 23.0775 31.8317 32.6261 31.7871 33.9404C31.7995 34.3386 31.8229 34.6783 31.8375 35.1568C31.8441 35.3504 31.8331 35.4089 31.9201 35.5404C32.0034 35.6653 32.0969 35.7946 32.2116 35.8933C32.4081 36.0635 32.5834 36.0277 32.8676 36.016C33.0883 35.9948 33.2585 35.997 33.4353 35.9736C33.767 35.9239 34.2514 35.7618 34.5509 35.6931C34.6415 35.669 34.7386 35.6383 34.7233 35.5265C34.7094 35.2248 34.6298 34.5505 34.613 34.1852C34.6101 34.0807 34.6532 34.0215 34.7014 33.9353C34.7679 33.8045 34.7766 33.6402 34.8037 33.4692C34.8387 33.1558 34.933 32.7554 34.914 32.4698C34.9038 32.3134 34.8753 32.1403 34.8709 31.9869C35.0017 30.7303 35.4261 28.1886 35.4407 27.4821C35.4276 27.3199 35.3947 27.1183 35.4005 26.9765C35.4159 26.7873 35.448 26.658 35.4802 26.4388C35.543 26.048 35.611 25.6286 35.6738 25.237C35.7359 24.9192 35.7132 24.6679 35.7169 24.3494C35.7286 24.2106 35.6811 24.0272 35.7863 23.9439C36.0245 23.8541 36.37 23.9001 36.6228 23.8416C37.1401 23.6268 37.7939 23.2594 38.336 23.0015C38.5398 22.9043 38.6253 22.8583 38.7751 22.7049C39.0571 22.4331 39.5553 21.9728 39.803 21.7252C39.8863 21.6302 39.9082 21.5498 39.971 21.4205C40.115 21.1064 40.3824 20.5226 40.4941 20.2786C40.6176 20.0163 40.6549 19.7161 40.7265 19.4341C40.8061 19.0797 40.7528 18.7276 40.7681 18.3499C40.7557 17.9861 40.8003 17.6273 40.7308 17.2789C40.6512 16.8924 40.5957 16.4117 40.4912 16.0493L40.4876 16.0427L40.4868 16.042ZM38.7546 17.8027C38.7269 18.0262 38.6589 18.309 38.6166 18.5376C38.5815 18.7729 38.4712 18.9913 38.3514 19.144C38.1906 19.3376 37.9941 19.51 37.8093 19.7036C37.6602 19.8534 37.5119 20.0032 37.3651 20.1508C37.235 20.2823 37.2168 20.2954 37.0414 20.3875C36.755 20.5387 36.4255 20.7148 36.145 20.8616C35.8944 20.9938 35.939 20.8061 35.9558 20.5949C35.9697 20.2574 35.9492 19.7358 35.9653 19.4048C35.9806 19.2616 36.0208 19.1681 36.0142 19.0154C36.0164 18.6501 35.9266 18.1687 35.9952 17.8253C36.1114 17.4593 36.0077 17.1897 36.0259 16.7857C36.0376 16.6228 35.9836 16.3766 36.1932 16.3466C36.7894 16.294 37.4374 16.2765 37.9875 16.5256C38.2381 16.6367 38.5464 16.7762 38.713 17.0049C38.7429 17.0553 38.7532 17.113 38.7576 17.1715C38.7634 17.3651 38.7663 17.5996 38.7546 17.791V17.8019V17.8027Z" fill="black"/>
<path d="M55.5959 25.4125L55.5303 25.4781L55.5959 25.5438L55.6615 25.4781L55.5959 25.4125Z" fill="black"/>
<path d="M55.5959 25.4125L55.5303 25.4781L55.5959 25.5438L55.6615 25.4781L55.5959 25.4125Z" fill="black"/>
</g>
<path d="M14.705 44.352C15.3636 45.0655 16.2142 45.4222 17.2707 45.4222C17.7372 45.4222 18.1214 45.3262 18.4232 45.1341C18.7251 44.942 18.876 44.6813 18.876 44.3383C18.876 44.0365 18.7937 43.8307 18.6153 43.7072C18.4369 43.5837 18.1899 43.5151 17.8881 43.5014L16.4475 43.3779C15.7615 43.3093 15.2126 43.0761 14.7873 42.6644C14.3483 42.2666 14.1287 41.7177 14.115 41.0043C14.115 40.1536 14.4169 39.5088 14.9931 39.0697C15.5557 38.6444 16.2691 38.4249 17.1335 38.4249C17.5039 38.4249 17.8469 38.4523 18.1351 38.4935C18.4369 38.5484 18.7113 38.617 18.972 38.713C19.4659 38.9188 19.9187 39.2069 20.3166 39.5637L19.315 40.771C18.9994 40.5378 18.6702 40.3457 18.3272 40.1948C17.9841 40.0576 17.5863 39.989 17.1472 39.989C16.6396 39.989 16.2828 40.085 16.077 40.2771C15.8575 40.4692 15.7615 40.7024 15.7615 41.0043C15.7615 41.1964 15.8301 41.361 16.0084 41.4982C16.1593 41.6491 16.4338 41.7589 16.8316 41.8001L18.1762 41.9098C19.0132 41.9784 19.6306 42.2391 20.001 42.7056C20.344 43.1584 20.5224 43.7346 20.5224 44.4206C20.5224 45.2301 20.1931 45.8613 19.562 46.3003C18.9446 46.7531 18.1351 46.9863 17.1747 46.9863C15.8575 46.9863 14.6638 46.4924 13.6211 45.4908L14.7599 44.3383L14.705 44.352Z" fill="black"/>
<path d="M26.3932 46.1631H26.3657C26.2148 46.4512 25.9816 46.657 25.666 46.7942C25.3504 46.9314 24.9251 47 24.3763 47C23.4707 47 22.7847 46.7393 22.2908 46.2591C21.7694 45.7926 21.5225 45.1889 21.5225 44.448C21.5225 43.7071 21.742 43.1583 22.1948 42.7055C22.6475 42.2391 23.2924 41.9921 24.1568 41.9784H26.4069V41.1003C26.4069 40.3594 25.8581 40.0026 24.7467 40.0301C24.3488 40.0301 24.0196 40.0712 23.7863 40.1536C23.5393 40.2496 23.3473 40.428 23.2101 40.6749L21.9341 39.6734C22.5515 38.8364 23.457 38.4385 24.6644 38.4522C25.6797 38.4522 26.4892 38.6443 27.0929 39.0422C27.6966 39.4538 28.0122 40.181 28.0122 41.1963V46.8902H26.3932V46.1493V46.1631ZM26.3932 43.3641H24.4449C23.4982 43.3916 23.0317 43.7208 23.0454 44.3657C23.0454 44.6538 23.1689 44.8871 23.4159 45.0929C23.6491 45.3124 24.0333 45.4222 24.5821 45.4222C25.2681 45.4222 25.7483 45.3536 26.0227 45.1752C26.2834 44.9968 26.4069 44.5989 26.4069 43.9678V43.3641H26.3932Z" fill="black"/>
<path d="M29.4356 38.5488H31.0546V43.5293C31.0546 44.0918 31.2055 44.5309 31.5074 44.8464C31.8092 45.162 32.1934 45.3267 32.6599 45.3267C33.1264 45.3267 33.5105 45.162 33.7987 44.8464C34.1005 44.5309 34.2514 44.0918 34.2514 43.5293V38.5488H35.8704V46.8908H34.2514V45.9989H34.224C33.6889 46.6575 32.9892 46.9868 32.1248 46.9868C31.4525 46.9868 30.8488 46.7261 30.3137 46.2322C29.7237 45.752 29.4356 45.0385 29.4219 44.0918V38.5351L29.4356 38.5488Z" fill="black"/>
<path d="M37.4678 38.5484H39.0868V39.4265H39.1142C39.6493 38.7679 40.349 38.4387 41.2134 38.4387C41.8857 38.4387 42.4894 38.6856 43.0519 39.1658C43.6008 39.6598 43.8889 40.3869 43.9163 41.3336V46.8767H42.2973V41.8962C42.2973 41.3062 42.1464 40.8672 41.8446 40.5653C41.5427 40.2497 41.1723 40.0988 40.7058 40.0988C40.2393 40.0988 39.8551 40.2497 39.5533 40.5653C39.2514 40.8672 39.1005 41.3199 39.1005 41.8962V46.8767H37.4815V38.5347L37.4678 38.5484Z" fill="black"/>
<path d="M49.898 46.1631H49.8706C49.7197 46.4512 49.4864 46.657 49.1709 46.7942C48.8553 46.9314 48.43 47 47.8812 47C46.9756 47 46.2896 46.7393 45.7957 46.2591C45.2743 45.7926 45.0273 45.1889 45.0273 44.448C45.0273 43.7071 45.2469 43.1583 45.6996 42.7055C46.1524 42.2391 46.7973 41.9921 47.6616 41.9784H49.9118V41.1003C49.9118 40.3594 49.363 40.0026 48.2516 40.0301C47.8537 40.0301 47.5244 40.0712 47.2912 40.1536C47.0442 40.2496 46.8521 40.428 46.7149 40.6749L45.4389 39.6734C46.0564 38.8364 46.9619 38.4385 48.1693 38.4522C49.1846 38.4522 49.9941 38.6443 50.5978 39.0422C51.2015 39.4538 51.517 40.181 51.517 41.1963V46.8902H49.898V46.1493V46.1631ZM49.898 43.3641H47.9498C47.0031 43.3916 46.5366 43.7208 46.5503 44.3657C46.5503 44.6538 46.6738 44.8871 46.9207 45.0929C47.154 45.3124 47.5382 45.4222 48.087 45.4222C48.773 45.4222 49.2532 45.3536 49.5276 45.1752C49.7883 44.9968 49.9118 44.5989 49.9118 43.9678V43.3641H49.898Z" fill="black"/>
<path d="M53.4648 44.352C54.1233 45.0655 54.974 45.4222 56.0305 45.4222C56.4969 45.4222 56.8811 45.3262 57.183 45.1341C57.4848 44.942 57.6357 44.6813 57.6357 44.3383C57.6357 44.0365 57.5534 43.8307 57.3751 43.7072C57.1967 43.5837 56.9497 43.5151 56.6479 43.5014L55.2072 43.3779C54.5212 43.3093 53.9724 43.0761 53.5471 42.6644C53.108 42.2666 52.8885 41.7177 52.8748 41.0043C52.8748 40.1536 53.1766 39.5088 53.7529 39.0697C54.3154 38.6444 55.0289 38.4249 55.8933 38.4249C56.2637 38.4249 56.6067 38.4523 56.8948 38.4935C57.1967 38.5484 57.4711 38.617 57.7318 38.713C58.2257 38.9188 58.6785 39.2069 59.0764 39.5637L58.0748 40.771C57.7592 40.5378 57.4299 40.3457 57.0869 40.1948C56.7439 40.0576 56.346 39.989 55.907 39.989C55.3993 39.989 55.0426 40.085 54.8368 40.2771C54.6173 40.4692 54.5212 40.7024 54.5212 41.0043C54.5212 41.1964 54.5898 41.361 54.7682 41.4982C54.9191 41.6491 55.1935 41.7589 55.5914 41.8001L56.936 41.9098C57.7729 41.9784 58.3903 42.2391 58.7608 42.7056C59.1038 43.1584 59.2822 43.7346 59.2822 44.4206C59.2822 45.2301 58.9529 45.8613 58.3217 46.3003C57.7043 46.7531 56.8948 46.9863 55.9344 46.9863C54.6173 46.9863 53.4236 46.4924 52.3809 45.4908L53.5196 44.3383L53.4648 44.352Z" fill="black"/>
<defs>
<clipPath id="clip0_59_6">
<rect width="45.6677" height="22.1526" fill="white" transform="translate(13.6211 13.9503)"/>
</clipPath>
</defs>
</svg>
